<?xml version="1.0" standalone="no"?><!DOCTYPE svg PUBLIC "-//W3C//DTD SVG 1.1//EN" "http://www.w3.org/Graphics/SVG/1.1/DTD/svg11.dtd"><svg t="1727340739654" class="icon" viewBox="0 0 1024 1024" version="1.1" xmlns="http://www.w3.org/2000/svg" p-id="4517" xmlns:xlink="http://www.w3.org/1999/xlink" width="200" height="200"><path d="M993.487998 529.269889c0-55.188093-55.541359-105.051019-144.943975-140.927204 37.786442-88.512908 41.868634-163.025992 2.891552-202.029241s-113.516333-34.881805-202.029241 2.878468C613.543232 99.815464 563.680307 44.274104 508.531466 44.274104S403.441195 99.815464 367.56501 189.191912c-88.512908-37.773358-163.012908-41.868634-202.016157-2.891552s-34.894889 113.516333 2.878468 202.029241C79.037789 424.205786 23.496429 474.068712 23.496429 529.256805s55.541359 105.051019 144.930892 140.91412c-37.773358 88.512908-41.868634 163.025992-2.878468 202.029241s113.503249 34.894889 202.016157-2.891552c35.876185 89.415701 85.739111 144.95706 140.966456 144.95706s105.051019-55.541359 140.91412-144.943976c88.512908 37.786442 163.025992 41.868634 202.029241 2.891552s34.894889-113.516333-2.891553-202.029241c89.363365-35.863101 144.904724-85.726027 144.904724-140.91412zM504.122175 682.456752a159.755005 159.755005 0 1 1 159.741921-159.624165 159.755005 159.755005 0 0 1-159.741921 159.624165z" fill="#13227a" p-id="4518"></path><path d="M506.55579 522.54474m-111.056551 0a111.056551 111.056551 0 1 0 222.113101 0 111.056551 111.056551 0 1 0-222.113101 0Z" fill="#13227a" p-id="4519"></path><path d="M267.731036 80.579555a72.314981 31.493063 60 1 0 54.547585-31.493063 72.314981 31.493063 60 1 0-54.547585 31.493063Z" fill="#13227a" p-id="4520"></path><path d="M881.46135 382.888026a28.771602 81.421408 45 1 0 115.14726-115.14726 28.771602 81.421408 45 1 0-115.14726 115.14726Z" fill="#13227a" p-id="4521"></path><path d="M243.90689 1020.44041a28.771602 81.421408 45 1 0 115.14726-115.14726 28.771602 81.421408 45 1 0-115.14726 115.14726Z" fill="#13227a" p-id="4522"></path></svg>