<?xml version="1.0" standalone="no"?><!DOCTYPE svg PUBLIC "-//W3C//DTD SVG 1.1//EN" "http://www.w3.org/Graphics/SVG/1.1/DTD/svg11.dtd"><svg t="1727340578627" class="icon" viewBox="0 0 1024 1024" version="1.1" xmlns="http://www.w3.org/2000/svg" p-id="3230" xmlns:xlink="http://www.w3.org/1999/xlink" width="200" height="200"><path d="M256 23.661714h512a128 128 0 0 1 128 128v731.428572a128 128 0 0 1-128 128H256a128 128 0 0 1-128-128v-731.428572A128 128 0 0 1 256 23.661714z m281.819429 422.985143c24.283429 0 43.52-16.566857 43.52-37.412571 0-20.845714-19.236571-37.449143-43.52-37.449143H262.948571c-21.76 0-41.033143 17.115429-43.52 37.961143 0 20.845714 19.273143 36.937143 43.52 36.937143h274.870858zM434.176 257.718857c24.283429 0 43.52-16.566857 43.52-37.449143 0-20.845714-19.236571-37.412571-43.52-37.412571H262.948571C241.188571 182.857143 221.915429 199.972571 219.428571 220.818286c0 20.845714 19.273143 36.900571 43.52 36.900571h171.227429z m53.686857 574.025143L760.173714 512c11.264-13.275429 10.24-35.510857-2.304-50.285714-12.544-14.738286-31.488-15.908571-42.788571-2.669715l-272.274286 319.817143c-10.130286 11.885714-8.777143 34.523429 2.56 50.651429 12.580571 14.738286 31.195429 15.542857 42.496 2.267428z" fill="#13227a" p-id="3231"></path></svg>